HIERARCHY
ROOT Hips
{
    OFFSET 0.000000 0.000000 0.000000
    CHANNELS 6 Xposition Yposition Zposition Zrotation Yrotation Xrotation
    JOINT LeftUpLeg
    {
        OFFSET 8.880786 -10.992074 2.946151
        CHANNELS 3 Zrotation Yrotation Xrotation
        JOINT LeftLeg
        {
            OFFSET 14.694236 -40.372078 0.000000
            CHANNELS 3 Zrotation Yrotation Xrotation
            JOINT LeftFoot
            {
                OFFSET 15.683248 -43.089348 0.000000
                CHANNELS 3 Zrotation Yrotation Xrotation
                JOINT LeftToeBase
                {
                    OFFSET 1.120244 -3.077835 12.895535
                    CHANNELS 3 Zrotation Yrotation Xrotation
                    End Site
                    {
                        OFFSET 0.000000 0.000000 0.000000
                    }
                }
            }
        }
    }
    JOINT RightUpLeg
    {
        OFFSET -9.117230 -10.992074 2.946151
        CHANNELS 3 Zrotation Yrotation Xrotation
        JOINT RightLeg
        {
            OFFSET -14.327125 -39.363480 0.000000
            CHANNELS 3 Zrotation Yrotation Xrotation
            JOINT RightFoot
            {
                OFFSET -15.847331 -43.540169 0.000000
                CHANNELS 3 Zrotation Yrotation Xrotation
                JOINT RightToeBase
                {
                    OFFSET -1.723574 -4.735539 12.914443
                    CHANNELS 3 Zrotation Yrotation Xrotation
                    End Site
                    {
                        OFFSET 0.000000 0.000000 0.000000
                    }
                }
            }
        }
    }
    JOINT Spine
    {
        OFFSET -0.247281 11.260408 -1.116349
        CHANNELS 3 Zrotation Yrotation Xrotation
        JOINT Spine1
        {
            OFFSET -0.110574 11.361895 -0.246773
            CHANNELS 3 Zrotation Yrotation Xrotation
            JOINT Neck1
            {
                OFFSET -0.308128 9.985678 0.547958
                CHANNELS 3 Zrotation Yrotation Xrotation
                JOINT Head
                {
                    OFFSET 0.534017 10.011359 -0.630592
                    CHANNELS 3 Zrotation Yrotation Xrotation
                    End Site
                    {
                        OFFSET 0.000000 0.000000 0.000000
                    }
                }
            }
            JOINT LeftShoulder
            {
                OFFSET 0.000000 0.000000 0.000000
                CHANNELS 3 Zrotation Yrotation Xrotation
                JOINT LeftArm
                {
                    OFFSET 19.807442 7.000975 -1.629313
                    CHANNELS 3 Zrotation Yrotation Xrotation
                    JOINT LeftForeArm
                    {
                        OFFSET 30.490372 -0.000000 0.000000
                        CHANNELS 3 Zrotation Yrotation Xrotation
                        JOINT LeftHand
                        {
                            OFFSET 20.802944 -0.000000 0.000000
                            CHANNELS 3 Zrotation Yrotation Xrotation
                            End Site
                            {
                                OFFSET 0.000000 0.000000 0.000000
                            }
                        }
                    }
                }
            }
            JOINT RightShoulder
            {
                OFFSET 0.000000 0.000000 0.000000
                CHANNELS 3 Zrotation Yrotation Xrotation
                JOINT RightArm
                {
                    OFFSET -16.672035 7.882348 -1.543518
                    CHANNELS 3 Zrotation Yrotation Xrotation
                    JOINT RightForeArm
                    {
                        OFFSET -34.468658 -0.000000 -0.000000
                        CHANNELS 3 Zrotation Yrotation Xrotation
                        JOINT RightHand
                        {
                            OFFSET -20.492107 -0.000000 0.000000
                            CHANNELS 3 Zrotation Yrotation Xrotation
                            End Site
                            {
                                OFFSET 0.000000 0.000000 0.000000
                            }
                        }
                    }
                }
            }
        }
    }
}
MOTION
Frames: 15
Frame Time: 0.016667
44.254356 100.418396 28.753704 -2.644404 -81.111176 4.906308 -19.286102 -6.643900 -5.343797 1.482401 7.692501 21.783997 0.747899 15.996107 -28.836315 0.103400 2.073200 5.707900 22.437096 19.760696 -4.905201 -1.901201 -8.657105 24.728405 -0.438000 -13.377806 -23.509117 -0.026500 -1.050400 2.887400 0.718259 2.749378 6.519397 -0.184300 0.782500 -1.918302 0.559215 3.429159 5.737595 2.214200 0.798300 6.204504 0.000000 0.000000 0.000000 -88.419899 -0.116700 1.761800 8.042803 -13.622206 -0.962201 0.000000 0.000000 22.725599 0.000000 0.000000 0.000000 82.570511 -7.546200 26.581903 -18.543606 28.847605 -4.808600 0.000000 0.000000 12.626900 
44.192268 100.427986 28.665649 -2.425505 -81.114464 4.835208 -19.239101 -6.695300 -5.417298 1.464900 7.649004 21.652905 0.776899 15.869407 -28.906208 0.135000 2.367802 6.523406 22.467310 20.102699 -4.914599 -1.903902 -8.662902 24.746414 -0.427700 -13.637099 -23.710417 -0.027000 -1.060900 2.916301 0.749582 2.579578 6.440235 -0.142200 0.735900 -2.042902 0.450782 3.467581 5.873256 2.208701 0.807200 6.185804 0.000000 0.000000 0.000000 -88.444901 -0.019400 2.366600 8.144102 -13.786203 -0.986200 0.000000 0.000000 22.048309 0.000000 0.000000 0.000000 82.495903 -7.646603 26.542608 -18.439905 28.716801 -4.758698 0.000000 0.000000 12.691700 
44.135822 100.431374 28.608076 -1.512602 -81.180000 4.028011 -19.329700 -6.639503 -5.480303 1.456301 7.627504 21.588310 0.794800 15.768209 -28.924704 0.139900 2.410602 6.641702 22.365099 20.279602 -4.891503 -1.897601 -8.649405 24.704607 -0.412600 -13.770404 -23.727608 -0.027400 -1.068000 2.936000 0.677499 2.631737 6.453932 -0.202900 0.748800 -2.151400 0.507788 3.454038 5.880415 2.245401 0.801600 6.197703 0.000000 0.000000 0.000000 -88.471298 -0.059700 2.194100 8.253001 -13.962103 -1.012301 0.000000 0.000000 22.599506 0.000000 0.000000 0.000000 82.680832 -7.620006 25.775896 -18.105497 28.291994 -4.599099 0.000000 0.000000 13.171600 
44.044949 100.439278 28.583242 -2.888504 -81.275703 5.449405 -19.118700 -6.698400 -5.408702 1.448700 7.608400 21.530800 0.759400 16.024206 -28.947613 0.120600 2.238900 6.166300 22.620705 20.405109 -4.805201 -1.886700 -8.625998 24.632301 -0.418001 -13.752600 -23.755495 -0.027200 -1.065400 2.928700 1.025953 2.588707 6.382314 -0.256700 0.740800 -2.020199 0.484888 3.410833 5.754029 2.164402 0.795500 6.168103 0.000000 0.000000 0.000000 -88.562233 -0.297200 2.337699 8.416100 -14.225103 -1.052000 0.000000 0.000000 22.046501 0.000000 0.000000 0.000000 82.541412 -7.540699 26.114210 -18.068903 28.245298 -4.581800 0.000000 0.000000 12.778300 
43.936008 100.446609 28.545425 -2.747499 -81.213066 5.452695 -19.172400 -7.300701 -5.264101 1.450699 7.613501 21.546200 0.795899 16.256603 -29.449202 0.128800 2.313702 6.373502 22.574200 20.239401 -4.906900 -1.870700 -8.591304 24.525011 -0.419502 -13.740301 -23.754993 -0.022500 -0.968000 2.660801 1.153526 2.505407 6.210166 -0.385800 0.717000 -1.941201 0.615175 3.304407 5.773489 2.200600 0.765100 6.146898 0.000000 0.000000 0.000000 -88.467613 -0.408900 3.416801 8.527006 -14.403407 -1.079400 0.000000 0.000000 21.387600 0.000000 0.000000 0.000000 82.643021 -7.662099 26.013300 -18.150208 28.349100 -4.620302 0.000000 0.000000 12.746500 
43.907787 100.450562 28.444391 -3.638111 -81.302361 6.383814 -18.946096 -7.289604 -5.407300 1.473800 7.671300 21.719999 0.818602 16.229097 -29.576202 0.136400 2.380501 6.558502 22.751209 20.060902 -4.969202 -1.840600 -8.525800 24.322800 -0.379602 -13.698999 -23.348194 -0.013200 -0.741200 2.036900 1.390016 2.451527 6.346201 -0.386100 0.705100 -2.144000 0.550067 3.341263 5.871054 2.208401 0.770500 6.237600 0.000000 0.000000 0.000000 -88.511711 -0.490199 4.307900 8.642100 -14.588299 -1.108201 0.000000 0.000000 20.430708 0.000000 0.000000 0.000000 82.690147 -7.602901 25.282013 -17.769707 27.861303 -4.441100 0.000000 0.000000 13.622100 
43.780788 100.438705 28.380043 -7.560711 -81.196587 10.192105 -18.210907 -7.023602 -5.343001 1.471801 7.666300 21.704905 0.839702 15.972608 -29.451500 0.134200 2.361000 6.504502 23.533804 20.051504 -4.748903 -1.838501 -8.521309 24.309011 -0.395499 -13.697206 -23.490108 -0.015200 -0.795100 2.185300 2.244866 2.416785 6.393490 -0.590600 0.704200 -2.117601 0.711217 3.061558 5.982137 2.234501 0.691100 6.199600 0.000000 0.000000 0.000000 -88.511101 -0.623401 5.144499 8.772004 -14.796399 -1.141200 0.000000 0.000000 19.857700 0.000000 0.000000 0.000000 82.466515 -7.915907 26.134115 -18.127306 28.319906 -4.609501 0.000000 0.000000 12.835596 
43.745792 100.461853 28.394154 -0.232501 -81.432663 3.331807 -19.458103 -7.227202 -5.504300 1.438399 7.582496 21.452900 0.821600 16.277100 -29.647598 0.144500 2.449501 6.749702 22.109999 20.098003 -5.344699 -1.870501 -8.591003 24.524000 -0.430200 -13.358898 -23.417995 -0.018800 -0.886100 2.435301 0.960979 2.453690 5.982970 -0.274600 0.701700 -1.970603 0.599513 2.806370 6.023170 2.215800 0.618200 6.172005 0.000000 0.000000 0.000000 -88.653847 -0.824800 6.170599 8.997205 -15.155903 -1.199400 0.000000 0.000000 18.872713 0.000000 0.000000 0.000000 82.320801 -7.773701 25.991604 -18.020300 28.183214 -4.558802 0.000000 0.000000 12.681800 
43.660000 100.446609 28.259253 -2.640612 -81.561409 5.668520 -19.060808 -7.562505 -5.108402 1.405500 7.499101 21.202600 0.815201 16.673000 -30.024019 0.153200 2.521797 6.950099 22.657806 20.417206 -5.267603 -1.907301 -8.670205 24.769106 -0.442898 -13.426907 -23.608908 -0.025800 -1.037000 2.850501 1.400543 2.380157 6.099735 -0.200900 0.688100 -2.012900 0.475264 2.489198 6.150588 2.353501 0.516100 6.185806 0.000000 0.000000 0.000000 -88.744217 -0.863199 7.637401 9.257000 -15.569114 -1.268200 0.000000 0.000000 17.406204 0.000000 0.000000 0.000000 82.311302 -7.621201 25.619503 -17.778900 27.873102 -4.445400 0.000000 0.000000 13.041404 
43.623310 100.437019 28.172329 -2.693515 -81.626511 5.660716 -19.019306 -7.643906 -5.041302 1.416499 7.527100 21.286598 0.837199 16.710409 -30.211308 0.161600 2.590102 7.139600 22.732210 20.366608 -5.237299 -1.907500 -8.670702 24.770605 -0.433499 -13.358300 -23.446808 -0.029900 -1.117000 3.070800 1.521074 2.342768 6.331877 -0.380300 0.676100 -2.177300 0.687808 1.925194 6.392128 2.453901 0.347500 6.243299 0.000000 0.000000 0.000000 -88.724411 -0.961800 8.248000 9.468103 -15.903300 -1.325500 0.000000 0.000000 17.115606 0.000000 0.000000 0.000000 82.644440 -7.317405 24.595505 -17.305405 27.258612 -4.226203 0.000000 0.000000 13.933900 
43.558964 100.430809 28.097260 -2.255011 -81.710083 5.347021 -19.052914 -7.807104 -5.042701 1.411001 7.513104 21.244600 0.849900 16.834612 -30.428019 0.163400 2.604302 7.178896 22.695307 20.489414 -5.370699 -1.923101 -8.704004 24.873800 -0.429399 -13.393406 -23.449413 -0.024400 -1.008201 2.771402 1.412040 2.113595 6.224375 -0.298900 0.610700 -2.171500 0.660588 1.486444 6.749075 2.345300 0.222900 6.267102 0.000000 0.000000 0.000000 -88.855904 -0.941800 9.045501 9.809799 -16.441614 -1.420700 0.000000 0.000000 16.154301 0.000000 0.000000 0.000000 82.522011 -7.225501 25.249506 -17.258005 27.196707 -4.204602 0.000000 0.000000 13.597900 
43.453415 100.422905 28.043638 -2.112993 -81.894218 5.228593 -19.072502 -7.746299 -4.939101 1.402501 7.491399 21.179708 0.903300 16.786200 -30.728216 0.189900 2.806800 7.741203 22.688810 20.393404 -5.438102 -1.935301 -8.730002 24.954214 -0.443899 -13.151909 -23.309813 -0.024000 -1.001100 2.751900 1.434431 1.953780 6.109086 -0.063500 0.569200 -2.054100 0.249449 0.681741 7.169623 2.474300 -0.027000 6.302400 0.000000 0.000000 0.000000 -89.117302 -0.915201 10.239108 10.126996 -16.937908 -1.511701 0.000000 0.000000 14.948708 0.000000 0.000000 0.000000 82.184502 -6.963202 25.350004 -17.070301 26.950407 -4.119201 0.000000 0.000000 13.851402 
43.316257 100.410492 27.918331 -1.871706 -82.065239 5.068717 -19.030199 -7.575398 -4.944997 1.388301 7.454803 21.070101 0.880402 16.908693 -30.706799 0.153300 2.523299 6.954198 22.746401 20.618401 -5.438400 -1.949399 -8.759900 25.047300 -0.460200 -13.110604 -23.410700 -0.029300 -1.105101 3.038102 1.365979 1.818622 5.896926 -0.021400 0.530400 -2.032901 0.015483 -0.433972 7.821655 2.427800 -0.360300 6.436497 0.000000 0.000000 0.000000 -89.187241 -0.802700 10.511805 10.478004 -17.483810 -1.615600 0.000000 0.000000 14.625100 0.000000 0.000000 0.000000 82.045227 -7.027605 26.101215 -17.194599 27.113710 -4.175700 0.000000 0.000000 13.254699 
43.214092 100.402031 27.842133 -0.892006 -82.177795 4.011109 -19.195312 -7.690103 -4.631200 1.375699 7.422298 20.972599 0.928000 17.004200 -31.116297 0.148900 2.486400 6.852004 22.707603 20.540199 -5.355901 -1.960499 -8.783200 25.119499 -0.484201 -12.974302 -23.476397 -0.031400 -1.143800 3.144601 1.272202 1.474929 5.865315 -0.026100 0.430200 -1.817200 -0.286582 -2.037422 8.295796 2.353400 -0.842300 6.879400 0.000000 0.000000 0.000000 -89.385498 -0.715500 10.783499 10.963303 -18.232008 -1.764401 0.000000 0.000000 13.949004 0.000000 0.000000 0.000000 82.175835 -6.459006 25.850813 -16.979403 26.830616 -4.078001 0.000000 0.000000 13.771097 
43.091045 100.385651 27.739407 -1.460504 -82.483727 4.581514 -19.137009 -7.952400 -4.330201 1.362700 7.388707 20.872194 0.989300 17.260700 -31.772303 0.174200 2.688801 7.413603 22.836201 20.396000 -5.440299 -1.971298 -8.806094 25.190680 -0.493900 -12.683204 -23.246313 -0.023800 -0.996700 2.739699 1.366640 1.139796 5.710382 0.296200 0.341600 -1.983801 -1.092368 -3.729264 9.270026 2.479800 -1.382201 7.295707 0.000000 0.000000 0.000000 -89.817108 0.023500 11.170700 11.609303 -19.216118 -1.971802 0.000000 0.000000 12.530400 0.000000 0.000000 0.000000 81.923798 -6.286902 25.592102 -16.811405 26.608500 -4.002501 0.000000 0.000000 14.602910 
